# Blender v2.76 (sub 0) OBJ File: ''
# www.blender.org
mtllib button.mtl
o Cube
v 1.000000 -1.000000 -1.000000
v 1.000000 -1.000000 1.000000
v -1.000000 -1.000000 1.000000
v -1.000000 -1.000000 -1.000000
v 1.000000 1.000000 -0.999999
v 0.999999 1.000000 1.000001
v -1.000000 1.000000 1.000000
v -1.000000 1.000000 -1.000000
v 0.604488 1.000000 -0.604488
v 0.604488 1.000000 0.604488
v -0.604488 1.000000 0.604488
v -0.604488 1.000000 -0.604488
v 0.604488 -0.608164 -0.604488
v 0.604488 -0.608164 0.604488
v -0.604488 -0.608164 0.604488
v -0.604488 -0.608164 -0.604488
vn 0.000000 -1.000000 0.000000
vn 0.000000 1.000000 0.000000
vn 1.000000 0.000000 0.000000
vn -0.000000 -0.000000 1.000000
vn -1.000000 -0.000000 -0.000000
vn 0.000000 0.000000 -1.000000
usemtl Material
s off
f 1//1 2//1 3//1 4//1
f 5//2 8//2 12//2 9//2
f 1//3 5//3 6//3 2//3
f 2//4 6//4 7//4 3//4
f 3//5 7//5 8//5 4//5
f 5//6 1//6 4//6 8//6
f 11//6 10//6 14//6 15//6
f 7//2 6//2 10//2 11//2
f 6//2 5//2 9//2 10//2
f 8//2 7//2 11//2 12//2
f 13//2 16//2 15//2 14//2
f 10//5 9//5 13//5 14//5
f 12//3 11//3 15//3 16//3
f 9//4 12//4 16//4 13//4
