# Blender v2.76 (sub 0) OBJ File: 'untitled.blend'
# www.blender.org
mtllib Scale.mtl
o Cube.001_Cube.002
v 1.812754 0.084309 -0.454289
v 1.812754 0.084309 0.281467
v 1.812754 -0.164784 0.281467
v 1.812754 -0.164784 -0.454289
v 0.799032 0.084309 0.281525
v 0.799032 -0.164784 0.281525
v 0.799032 0.084309 -0.454231
v 0.799032 -0.164784 -0.454231
v 3.220740 -0.465926 -0.093009
v 3.461922 -0.366025 -0.093009
v 3.394934 -0.366025 0.156991
v 3.186066 -0.465926 0.036401
v 3.827947 0.000000 -0.093009
v 3.927847 0.241181 -0.093009
v 3.798438 0.241181 0.389954
v 3.711921 -0.000000 0.340004
v 3.669028 -0.207107 -0.093009
v 3.574294 -0.207107 0.260544
v 3.394934 -0.000000 0.656991
v 3.315475 -0.207107 0.519363
v 3.211922 -0.366025 0.340004
v 3.091331 -0.465926 0.131135
v 3.444884 0.241181 0.743507
v 2.950310 -0.366025 0.406991
v 2.954825 -0.465926 0.165810
v 2.961922 0.241181 0.872917
v 2.961715 -0.000000 0.773016
v 2.955498 -0.207107 0.614098
v 2.481398 -0.207107 0.519364
v 2.625204 -0.395415 0.340004
v 2.800086 -0.469155 0.131135
v 2.377688 0.241181 0.743507
v 2.408802 -0.000000 0.656991
v 1.928506 -0.000000 0.340004
v 2.093566 -0.207107 0.260545
v 2.375212 -0.395415 0.156991
v 2.686478 -0.469155 0.036401
v 1.854100 0.241181 0.389954
v 2.330431 -0.366025 -0.093009
v 2.657831 -0.465926 -0.093009
v 1.806289 0.241181 -0.093009
v 1.889290 0.000000 -0.093009
v 2.056327 -0.207107 -0.093009
v 2.093308 -0.207107 -0.446562
v 2.367868 -0.366025 -0.343009
v 2.684505 -0.465926 -0.222418
v 1.856300 0.241181 -0.575971
v 1.929828 0.000000 -0.526021
v 2.412693 0.000000 -0.843008
v 2.483986 -0.207107 -0.705381
v 2.621653 -0.366025 -0.526021
v 2.799020 -0.465926 -0.317153
v 2.381973 0.241181 -0.929525
v 2.950678 -0.366025 -0.593009
v 2.954586 -0.465926 -0.351828
v 2.961922 0.241181 -1.058934
v 2.961856 0.000000 -0.959034
v 2.956180 -0.207107 -0.800115
v 3.315475 -0.207107 -0.705381
v 3.211922 -0.366025 -0.526021
v 3.091331 -0.465926 -0.317153
v 3.444884 0.241181 -0.929525
v 3.394934 0.000000 -0.843008
v 3.711921 0.000000 -0.526021
v 3.574294 -0.207107 -0.446562
v 3.394934 -0.366025 -0.343009
v 3.186066 -0.465926 -0.222418
v 3.798438 0.241181 -0.575971
v 3.173991 -0.417909 0.029430
v 3.206799 -0.417909 -0.093009
v 3.173991 -0.417909 -0.215448
v 3.084361 -0.417909 -0.305078
v 2.952470 -0.417909 -0.337885
v 2.803497 -0.417909 -0.305078
v 2.694604 -0.417909 -0.215448
v 2.670976 -0.418260 -0.088764
v 2.695391 -0.420578 0.034541
v 2.797984 -0.420578 0.119448
v 2.947874 -0.418260 0.151322
v 3.084361 -0.417909 0.119060
v 3.372595 -0.323194 0.144094
v 3.436126 -0.323194 -0.093009
v 3.674197 0.024543 0.318224
v 3.758434 0.260315 0.366857
v 3.881654 0.260315 -0.093009
v 3.784386 0.024543 -0.093009
v 3.543221 -0.172285 0.242606
v 3.633149 -0.172285 -0.093009
v 3.297536 -0.172285 0.488291
v 3.373155 0.024543 0.619267
v 3.199024 -0.323194 0.317664
v 3.421788 0.260315 0.703504
v 2.945871 -0.323847 0.380196
v 2.960651 0.024543 0.729456
v 2.961922 0.260315 0.826724
v 2.953092 -0.172683 0.577837
v 2.635235 -0.353237 0.315903
v 2.500483 -0.173237 0.487362
v 2.425908 0.024543 0.619267
v 2.396682 0.260315 0.703504
v 2.135965 -0.173237 0.242417
v 1.968753 0.024543 0.318224
v 2.402063 -0.353237 0.145159
v 1.897357 0.260315 0.366858
v 2.359475 -0.323847 -0.091289
v 1.931086 0.024543 -0.093009
v 1.851267 0.260315 -0.093009
v 2.098068 -0.172683 -0.092719
v 2.393361 -0.323194 -0.330112
v 2.134130 -0.172285 -0.428623
v 1.969623 0.024543 -0.504242
v 1.899092 0.260315 -0.552875
v 2.502614 -0.172285 -0.674309
v 2.429505 0.024543 -0.805285
v 2.633732 -0.323194 -0.503682
v 2.400701 0.260315 -0.889521
v 2.948262 -0.323194 -0.567213
v 2.961028 0.024543 -0.915473
v 2.961922 0.260315 -1.012741
v 2.954154 -0.172285 -0.764236
v 3.199024 -0.323194 -0.503682
v 3.297536 -0.172285 -0.674309
v 3.373155 0.024543 -0.805285
v 3.421788 0.260315 -0.889521
v 3.543221 -0.172285 -0.428623
v 3.674197 0.024543 -0.504242
v 3.372595 -0.323194 -0.330111
v 3.758434 0.260315 -0.552875
v -1.604702 0.084309 0.281583
v -1.604702 0.084309 -0.454174
v -1.604702 -0.164784 -0.454174
v -1.604702 -0.164784 0.281583
v -0.617460 -0.232574 0.481772
v -0.617460 -0.232574 -0.654452
v 0.799663 -0.232574 -0.654468
v 0.799663 -0.232574 0.481756
v -0.614428 -0.164784 0.281535
v -0.614428 -0.164784 -0.454221
v -0.614428 0.084309 0.281535
v 0.799663 0.152099 0.481756
v 0.799663 0.152099 -0.654468
v -0.617460 0.152099 -0.654452
v -0.617460 0.152099 0.481772
v -3.012666 -0.465926 -0.079697
v -3.253847 -0.366025 -0.079697
v -3.186860 -0.366025 -0.329697
v -2.977991 -0.465926 -0.209107
v -3.619872 0.000000 -0.079697
v -3.719773 0.241181 -0.079697
v -3.590363 0.241181 -0.562660
v -3.503847 0.000000 -0.512710
v -3.460954 -0.207107 -0.079697
v -3.366219 -0.207107 -0.433251
v -3.186860 0.000000 -0.829697
v -3.107400 -0.207107 -0.692070
v -3.003847 -0.366025 -0.512710
v -2.883256 -0.465926 -0.303841
v -3.236810 0.241181 -0.916214
v -2.742235 -0.366025 -0.579697
v -2.746750 -0.465926 -0.338516
v -2.753847 0.241181 -1.045623
v -2.753640 0.000000 -0.945723
v -2.747423 -0.207107 -0.786804
v -2.273324 -0.207107 -0.692070
v -2.417129 -0.395415 -0.512710
v -2.592012 -0.469155 -0.303841
v -2.169613 0.241181 -0.916214
v -2.200728 0.000000 -0.829697
v -1.720431 0.000000 -0.512710
v -1.885492 -0.207107 -0.433251
v -2.167139 -0.395415 -0.329697
v -2.478403 -0.469155 -0.209107
v -1.646024 0.241181 -0.562660
v -2.122356 -0.366025 -0.079697
v -2.449756 -0.465926 -0.079698
v -1.598215 0.241181 -0.079697
v -1.681216 0.000000 -0.079697
v -1.848253 -0.207107 -0.079697
v -1.885234 -0.207107 0.273856
v -2.159794 -0.366025 0.170302
v -2.476430 -0.465926 0.049712
v -1.648225 0.241181 0.403265
v -1.721753 -0.000000 0.353315
v -2.204619 -0.000000 0.670302
v -2.275913 -0.207107 0.532675
v -2.413578 -0.366025 0.353315
v -2.590946 -0.465926 0.144446
v -2.173898 0.241181 0.756818
v -2.742603 -0.366025 0.420302
v -2.746511 -0.465926 0.179121
v -2.753847 0.241181 0.886228
v -2.753781 -0.000000 0.786327
v -2.748105 -0.207107 0.627409
v -3.107400 -0.207107 0.532675
v -3.003847 -0.366025 0.353315
v -2.883256 -0.465926 0.144446
v -3.236810 0.241181 0.756818
v -3.186860 -0.000000 0.670302
v -3.503847 -0.000000 0.353315
v -3.366219 -0.207107 0.273856
v -3.186860 -0.366025 0.170302
v -2.977991 -0.465926 0.049712
v -3.590363 0.241181 0.403265
v -2.965916 -0.417909 -0.202137
v -2.998724 -0.417909 -0.079697
v -2.965916 -0.417909 0.042742
v -2.876286 -0.417909 0.132372
v -2.744395 -0.417909 0.165179
v -2.595422 -0.417909 0.132372
v -2.486529 -0.417909 0.042742
v -2.462903 -0.418260 -0.083943
v -2.487316 -0.420578 -0.207247
v -2.589911 -0.420578 -0.292154
v -2.739800 -0.418260 -0.324028
v -2.876286 -0.417909 -0.291767
v -3.164520 -0.323194 -0.316800
v -3.228051 -0.323194 -0.079697
v -3.466123 0.024543 -0.490930
v -3.550359 0.260315 -0.539564
v -3.673580 0.260315 -0.079697
v -3.576312 0.024543 -0.079697
v -3.335147 -0.172285 -0.415312
v -3.425075 -0.172285 -0.079697
v -3.089462 -0.172285 -0.660997
v -3.165080 0.024543 -0.791973
v -2.990950 -0.323194 -0.490370
v -3.213713 0.260315 -0.876210
v -2.737796 -0.323847 -0.552902
v -2.752576 0.024543 -0.902162
v -2.753847 0.260315 -0.999430
v -2.745017 -0.172683 -0.750544
v -2.427160 -0.353237 -0.488609
v -2.292409 -0.173237 -0.660068
v -2.217833 0.024543 -0.791973
v -2.188608 0.260315 -0.876210
v -1.927890 -0.173237 -0.415123
v -1.760678 0.024543 -0.490930
v -2.193988 -0.353237 -0.317865
v -1.689282 0.260315 -0.539564
v -2.151401 -0.323847 -0.081417
v -1.723012 0.024543 -0.079697
v -1.643192 0.260315 -0.079697
v -1.889993 -0.172683 -0.079987
v -2.185286 -0.323194 0.157405
v -1.926056 -0.172285 0.255917
v -1.761548 0.024543 0.331536
v -1.691018 0.260315 0.380169
v -2.294538 -0.172285 0.501602
v -2.221429 0.024543 0.632578
v -2.425657 -0.323194 0.330975
v -2.192627 0.260315 0.716815
v -2.740187 -0.323194 0.394507
v -2.752953 0.024543 0.742767
v -2.753847 0.260315 0.840035
v -2.746079 -0.172285 0.591530
v -2.990950 -0.323194 0.330975
v -3.089462 -0.172285 0.501602
v -3.165080 0.024543 0.632578
v -3.213713 0.260315 0.716815
v -3.335147 -0.172285 0.255917
v -3.466123 0.024543 0.331535
v -3.164520 -0.323194 0.157405
v -3.550359 0.260315 0.380169
v -0.614428 0.084309 -0.454221
vn 1.000000 0.000000 0.000000
vn 0.000100 -0.000000 1.000000
vn -1.000000 0.000000 0.000000
vn -0.000100 0.000000 -1.000000
vn -0.000000 -1.000000 -0.000000
vn 0.000000 1.000000 0.000000
vn 0.380700 -0.919100 0.102000
vn 0.896800 -0.371500 0.240300
vn 0.776000 -0.595500 0.207900
vn 0.600800 -0.783000 0.161000
vn 0.568100 -0.595500 0.568100
vn 0.439800 -0.783000 0.439800
vn 0.278700 -0.919100 0.278700
vn 0.656500 -0.371500 0.656500
vn 0.097700 -0.918700 0.382700
vn 0.240200 -0.371600 0.896800
vn 0.205900 -0.597400 0.775000
vn 0.156300 -0.784000 0.600800
vn -0.102500 -0.757900 0.644200
vn -0.011900 -0.934500 0.355800
vn -0.196500 -0.364400 0.910300
vn -0.162100 -0.591500 0.789900
vn -0.441400 -0.602000 0.665400
vn -0.353900 -0.783500 0.510800
vn -0.155400 -0.966700 0.203400
vn -0.523100 -0.336000 0.783200
vn -0.267700 -0.963000 -0.031000
vn -0.944100 -0.317400 0.089700
vn -0.770900 -0.632500 0.074900
vn -0.525600 -0.850200 0.030000
vn -0.491700 -0.868600 -0.060600
vn -0.287600 -0.956500 -0.048600
vn -0.944100 -0.316000 -0.093300
vn -0.772200 -0.630800 -0.076100
vn -0.440400 -0.599800 -0.668100
vn -0.318400 -0.826400 -0.464400
vn -0.202200 -0.941900 -0.268100
vn -0.521700 -0.334800 -0.784700
vn -0.079200 -0.922500 -0.377700
vn -0.197800 -0.364300 -0.910000
vn -0.163000 -0.591300 -0.789800
vn -0.122200 -0.786700 -0.605200
vn 0.156500 -0.784000 -0.600600
vn 0.097700 -0.918800 -0.382600
vn 0.240300 -0.371500 -0.896800
vn 0.206200 -0.597300 -0.775100
vn 0.568100 -0.595500 -0.568100
vn 0.439800 -0.783000 -0.439800
vn 0.278700 -0.919100 -0.278700
vn 0.656500 -0.371500 -0.656500
vn -0.002400 1.000000 0.002800
vn 0.380700 -0.919100 -0.102000
vn 0.896800 -0.371500 -0.240300
vn 0.776000 -0.595500 -0.207900
vn 0.600800 -0.783000 -0.161000
vn -0.379800 0.919500 -0.101800
vn -0.897300 0.370200 -0.240400
vn -0.775600 0.596000 -0.207800
vn -0.600200 0.783500 -0.160800
vn -0.567800 0.596000 -0.567800
vn -0.439300 0.783600 -0.439300
vn -0.278000 0.919500 -0.278000
vn -0.656900 0.370200 -0.656900
vn -0.095200 0.919400 -0.381700
vn -0.240000 0.370700 -0.897200
vn -0.204700 0.598600 -0.774500
vn -0.154000 0.785200 -0.599800
vn 0.101000 0.757600 -0.644800
vn 0.009100 0.935800 -0.352400
vn 0.193500 0.362400 -0.911700
vn 0.160000 0.593400 -0.788900
vn 0.437300 0.612900 -0.658100
vn 0.356900 0.780500 -0.513200
vn 0.151700 0.968100 -0.199300
vn 0.523100 0.332700 -0.784600
vn 0.264200 0.963800 0.035800
vn 0.945500 0.312600 -0.090900
vn 0.754000 0.652400 -0.075900
vn 0.527600 0.849000 -0.029800
vn 0.492000 0.868400 0.061500
vn 0.286300 0.957000 0.047700
vn 0.945700 0.311200 0.093800
vn 0.755800 0.650400 0.075800
vn 0.436300 0.610300 0.661100
vn 0.319300 0.826500 0.463700
vn 0.201300 0.942400 0.267200
vn 0.521500 0.331400 0.786300
vn 0.078300 0.923000 0.376700
vn 0.194700 0.362400 0.911500
vn 0.160600 0.592800 0.789200
vn 0.121200 0.787100 0.604900
vn -0.155000 0.784700 0.600200
vn -0.096200 0.919100 0.382000
vn -0.240200 0.370600 0.897200
vn -0.205200 0.598300 0.774600
vn -0.567800 0.596000 0.567800
vn -0.439300 0.783500 0.439300
vn -0.278000 0.919500 0.278000
vn -0.656900 0.370200 0.656900
vn -0.379800 0.919500 0.101800
vn -0.897300 0.370200 0.240400
vn -0.775600 0.596000 0.207800
vn -0.600200 0.783500 0.160800
vn 0.380700 0.919100 0.102000
vn 0.278700 0.919100 0.278700
vn 0.102000 0.919100 0.380700
vn -0.085400 0.917500 0.388500
vn -0.224900 0.915600 0.333400
vn -0.389000 0.920400 0.038700
vn -0.390400 0.919800 -0.040500
vn -0.225200 0.914800 -0.335200
vn -0.086000 0.917400 -0.388600
vn 0.102000 0.919100 -0.380700
vn 0.278700 0.919100 -0.278700
vn 0.380700 0.919100 -0.102000
vn 0.002600 -1.000000 -0.003000
vn -0.230000 -0.246400 -0.941500
vn -0.159200 -0.987300 0.000000
vn 0.017800 -0.345800 0.938200
vn -0.451300 -0.000000 0.892400
vn -0.999000 0.044700 0.000000
vn 0.000000 -0.000000 1.000000
vn -0.000000 0.000000 -1.000000
vn -0.380700 -0.919100 -0.102000
vn -0.896800 -0.371500 -0.240300
vn -0.776000 -0.595500 -0.207900
vn -0.600800 -0.783000 -0.161000
vn -0.568100 -0.595500 -0.568100
vn -0.439800 -0.783000 -0.439800
vn -0.278700 -0.919100 -0.278700
vn -0.656500 -0.371500 -0.656500
vn -0.097700 -0.918700 -0.382700
vn -0.240200 -0.371600 -0.896800
vn -0.205900 -0.597400 -0.775000
vn -0.156300 -0.784000 -0.600800
vn 0.102500 -0.757900 -0.644200
vn 0.011900 -0.934500 -0.355800
vn 0.196500 -0.364400 -0.910300
vn 0.162100 -0.591500 -0.789900
vn 0.441400 -0.602000 -0.665400
vn 0.353900 -0.783500 -0.510800
vn 0.155400 -0.966700 -0.203400
vn 0.523100 -0.336000 -0.783200
vn 0.267700 -0.963000 0.031000
vn 0.944100 -0.317400 -0.089700
vn 0.770900 -0.632500 -0.074900
vn 0.525600 -0.850200 -0.030000
vn 0.491700 -0.868600 0.060600
vn 0.287600 -0.956500 0.048600
vn 0.944100 -0.316000 0.093300
vn 0.772200 -0.630800 0.076100
vn 0.440400 -0.599800 0.668100
vn 0.318400 -0.826400 0.464400
vn 0.202200 -0.941900 0.268100
vn 0.521700 -0.334800 0.784700
vn 0.079200 -0.922500 0.377700
vn 0.197800 -0.364300 0.910000
vn 0.163000 -0.591300 0.789800
vn 0.122200 -0.786700 0.605200
vn -0.156500 -0.784000 0.600600
vn -0.097700 -0.918800 0.382500
vn -0.240300 -0.371500 0.896800
vn -0.206200 -0.597300 0.775100
vn -0.568100 -0.595500 0.568100
vn -0.439800 -0.783000 0.439800
vn -0.278700 -0.919100 0.278700
vn -0.656500 -0.371500 0.656500
vn 0.002400 1.000000 -0.002800
vn -0.380700 -0.919100 0.102000
vn -0.896800 -0.371500 0.240300
vn -0.776000 -0.595500 0.207900
vn -0.600800 -0.783000 0.161000
vn 0.379800 0.919500 0.101800
vn 0.897300 0.370200 0.240400
vn 0.775600 0.596000 0.207800
vn 0.600200 0.783600 0.160800
vn 0.567800 0.596000 0.567800
vn 0.439300 0.783600 0.439300
vn 0.278000 0.919500 0.278000
vn 0.656900 0.370200 0.656900
vn 0.095200 0.919400 0.381700
vn 0.240000 0.370700 0.897200
vn 0.204700 0.598600 0.774500
vn 0.154000 0.785200 0.599800
vn -0.101000 0.757600 0.644800
vn -0.009100 0.935800 0.352400
vn -0.193500 0.362400 0.911700
vn -0.160000 0.593400 0.788900
vn -0.437300 0.612900 0.658100
vn -0.356900 0.780500 0.513200
vn -0.151700 0.968100 0.199300
vn -0.523100 0.332700 0.784600
vn -0.264200 0.963800 -0.035800
vn -0.945500 0.312600 0.090900
vn -0.754000 0.652400 0.075900
vn -0.527600 0.849000 0.029800
vn -0.492000 0.868400 -0.061500
vn -0.286300 0.957000 -0.047700
vn -0.945700 0.311200 -0.093800
vn -0.755800 0.650400 -0.075800
vn -0.436300 0.610300 -0.661100
vn -0.319300 0.826500 -0.463700
vn -0.201300 0.942400 -0.267200
vn -0.521500 0.331400 -0.786300
vn -0.078300 0.923000 -0.376700
vn -0.194700 0.362400 -0.911500
vn -0.160600 0.592800 -0.789200
vn -0.121200 0.787100 -0.604900
vn 0.155000 0.784700 -0.600200
vn 0.096200 0.919100 -0.382000
vn 0.240200 0.370600 -0.897200
vn 0.205200 0.598300 -0.774600
vn 0.567800 0.596000 -0.567800
vn 0.439300 0.783600 -0.439300
vn 0.278000 0.919500 -0.278000
vn 0.656900 0.370200 -0.656900
vn 0.379800 0.919500 -0.101800
vn 0.897300 0.370200 -0.240400
vn 0.775600 0.596000 -0.207800
vn 0.600200 0.783600 -0.160800
vn -0.380700 0.919100 -0.102000
vn -0.278700 0.919100 -0.278700
vn -0.102000 0.919100 -0.380700
vn 0.085400 0.917500 -0.388500
vn 0.224900 0.915600 -0.333400
vn 0.389000 0.920400 -0.038700
vn 0.390400 0.919800 0.040500
vn 0.225200 0.914800 0.335200
vn 0.086000 0.917400 0.388600
vn -0.102000 0.919100 0.380700
vn -0.278700 0.919100 0.278700
vn -0.380700 0.919100 0.102000
vn -0.002600 -1.000000 0.003000
vn 0.230000 -0.246400 0.941500
vn 0.159200 -0.987200 -0.000000
vn -0.017800 -0.345800 -0.938200
vn 0.451400 0.000000 -0.892300
vn 1.000000 -0.000000 -0.003200
vn -0.999900 0.000000 -0.015100
vn 1.000000 -0.009300 -0.000000
vn 1.000000 0.009300 0.000000
vn -0.999900 -0.000000 0.015100
vn 1.000000 0.000000 0.003200
vn -0.999000 -0.044700 -0.000000
usemtl None
s 1
f 1//1 2//1 3//1 4//1
f 2//2 5//2 6//2 3//2
f 5//3 7//3 8//3 6//3
f 7//4 1//4 4//4 8//4
f 4//5 3//5 6//5 8//5
f 7//6 5//6 2//6 1//6
f 9//7 10//7 11//7 12//7
f 13//8 14//8 15//8 16//8
f 17//9 13//9 16//9 18//9
f 10//10 17//10 18//10 11//10
f 18//11 16//11 19//11 20//11
f 11//12 18//12 20//12 21//12
f 12//13 11//13 21//13 22//13
f 16//14 15//14 23//14 19//14
f 22//15 21//15 24//15 25//15
f 19//16 23//16 26//16 27//16
f 20//17 19//17 27//17 28//17
f 21//18 20//18 28//18 24//18
f 24//19 28//19 29//19 30//19
f 25//20 24//20 30//20 31//20
f 27//21 26//21 32//21 33//21
f 28//22 27//22 33//22 29//22
f 29//23 33//23 34//23 35//23
f 30//24 29//24 35//24 36//24
f 31//25 30//25 36//25 37//25
f 33//26 32//26 38//26 34//26
f 37//27 36//27 39//27 40//27
f 34//28 38//28 41//28 42//28
f 35//29 34//29 42//29 43//29
f 36//30 35//30 43//30 39//30
f 39//31 43//31 44//31 45//31
f 40//32 39//32 45//32 46//32
f 42//33 41//33 47//33 48//33
f 43//34 42//34 48//34 44//34
f 44//35 48//35 49//35 50//35
f 45//36 44//36 50//36 51//36
f 46//37 45//37 51//37 52//37
f 48//38 47//38 53//38 49//38
f 52//39 51//39 54//39 55//39
f 49//40 53//40 56//40 57//40
f 50//41 49//41 57//41 58//41
f 51//42 50//42 58//42 54//42
f 54//43 58//43 59//43 60//43
f 55//44 54//44 60//44 61//44
f 57//45 56//45 62//45 63//45
f 58//46 57//46 63//46 59//46
f 59//47 63//47 64//47 65//47
f 60//48 59//48 65//48 66//48
f 61//49 60//49 66//49 67//49
f 63//50 62//50 68//50 64//50
f 69//51 70//51 71//51 72//51 73//51 74//51 75//51 76//51 77//51 78//51 79//51 80//51
f 67//52 66//52 10//52 9//52
f 64//53 68//53 14//53 13//53
f 65//54 64//54 13//54 17//54
f 66//55 65//55 17//55 10//55
f 69//56 81//56 82//56 70//56
f 83//57 84//57 85//57 86//57
f 87//58 83//58 86//58 88//58
f 81//59 87//59 88//59 82//59
f 89//60 90//60 83//60 87//60
f 91//61 89//61 87//61 81//61
f 80//62 91//62 81//62 69//62
f 90//63 92//63 84//63 83//63
f 79//64 93//64 91//64 80//64
f 94//65 95//65 92//65 90//65
f 96//66 94//66 90//66 89//66
f 93//67 96//67 89//67 91//67
f 97//68 98//68 96//68 93//68
f 78//69 97//69 93//69 79//69
f 99//70 100//70 95//70 94//70
f 98//71 99//71 94//71 96//71
f 101//72 102//72 99//72 98//72
f 103//73 101//73 98//73 97//73
f 77//74 103//74 97//74 78//74
f 102//75 104//75 100//75 99//75
f 76//76 105//76 103//76 77//76
f 106//77 107//77 104//77 102//77
f 108//78 106//78 102//78 101//78
f 105//79 108//79 101//79 103//79
f 109//80 110//80 108//80 105//80
f 75//81 109//81 105//81 76//81
f 111//82 112//82 107//82 106//82
f 110//83 111//83 106//83 108//83
f 113//84 114//84 111//84 110//84
f 115//85 113//85 110//85 109//85
f 74//86 115//86 109//86 75//86
f 114//87 116//87 112//87 111//87
f 73//88 117//88 115//88 74//88
f 118//89 119//89 116//89 114//89
f 120//90 118//90 114//90 113//90
f 117//91 120//91 113//91 115//91
f 121//92 122//92 120//92 117//92
f 72//93 121//93 117//93 73//93
f 123//94 124//94 119//94 118//94
f 122//95 123//95 118//95 120//95
f 125//96 126//96 123//96 122//96
f 127//97 125//97 122//97 121//97
f 71//98 127//98 121//98 72//98
f 126//99 128//99 124//99 123//99
f 70//100 82//100 127//100 71//100
f 86//101 85//101 128//101 126//101
f 88//102 86//102 126//102 125//102
f 82//103 88//103 125//103 127//103
f 15//104 14//104 85//104 84//104
f 23//105 15//105 84//105 92//105
f 26//106 23//106 92//106 95//106
f 32//107 26//107 95//107 100//107
f 38//108 32//108 100//108 104//108
f 41//109 38//109 104//109 107//109
f 47//110 41//110 107//110 112//110
f 53//111 47//111 112//111 116//111
f 56//112 53//112 116//112 119//112
f 62//113 56//113 119//113 124//113
f 68//114 62//114 124//114 128//114
f 14//115 68//115 128//115 85//115
f 9//116 12//116 22//116 25//116 31//116 37//116 40//116 46//116 52//116 55//116 61//116 67//116
f 44//117 4//117 1//117 48//117
f 43//118 35//118 3//118 4//118 44//118
f 34//119 3//119 35//119
f 34//120 2//120 3//120
f 129//3 130//3 131//3 132//3
f 133//5 134//5 135//5 136//5
f 137//121 138//121 134//121 133//121
f 139//122 129//122 132//122 137//122
f 140//6 141//6 142//6 143//6
f 142//123 141//123 135//123 134//123
f 144//124 145//124 146//124 147//124
f 148//125 149//125 150//125 151//125
f 152//126 148//126 151//126 153//126
f 145//127 152//127 153//127 146//127
f 153//128 151//128 154//128 155//128
f 146//129 153//129 155//129 156//129
f 147//130 146//130 156//130 157//130
f 151//131 150//131 158//131 154//131
f 157//132 156//132 159//132 160//132
f 154//133 158//133 161//133 162//133
f 155//134 154//134 162//134 163//134
f 156//135 155//135 163//135 159//135
f 159//136 163//136 164//136 165//136
f 160//137 159//137 165//137 166//137
f 162//138 161//138 167//138 168//138
f 163//139 162//139 168//139 164//139
f 164//140 168//140 169//140 170//140
f 165//141 164//141 170//141 171//141
f 166//142 165//142 171//142 172//142
f 168//143 167//143 173//143 169//143
f 172//144 171//144 174//144 175//144
f 169//145 173//145 176//145 177//145
f 170//146 169//146 177//146 178//146
f 171//147 170//147 178//147 174//147
f 174//148 178//148 179//148 180//148
f 175//149 174//149 180//149 181//149
f 177//150 176//150 182//150 183//150
f 178//151 177//151 183//151 179//151
f 179//152 183//152 184//152 185//152
f 180//153 179//153 185//153 186//153
f 181//154 180//154 186//154 187//154
f 183//155 182//155 188//155 184//155
f 187//156 186//156 189//156 190//156
f 184//157 188//157 191//157 192//157
f 185//158 184//158 192//158 193//158
f 186//159 185//159 193//159 189//159
f 189//160 193//160 194//160 195//160
f 190//161 189//161 195//161 196//161
f 192//162 191//162 197//162 198//162
f 193//163 192//163 198//163 194//163
f 194//164 198//164 199//164 200//164
f 195//165 194//165 200//165 201//165
f 196//166 195//166 201//166 202//166
f 198//167 197//167 203//167 199//167
f 204//168 205//168 206//168 207//168 208//168 209//168 210//168 211//168 212//168 213//168 214//168 215//168
f 202//169 201//169 145//169 144//169
f 199//170 203//170 149//170 148//170
f 200//171 199//171 148//171 152//171
f 201//172 200//172 152//172 145//172
f 204//173 216//173 217//173 205//173
f 218//174 219//174 220//174 221//174
f 222//175 218//175 221//175 223//175
f 216//176 222//176 223//176 217//176
f 224//177 225//177 218//177 222//177
f 226//178 224//178 222//178 216//178
f 215//179 226//179 216//179 204//179
f 225//180 227//180 219//180 218//180
f 214//181 228//181 226//181 215//181
f 229//182 230//182 227//182 225//182
f 231//183 229//183 225//183 224//183
f 228//184 231//184 224//184 226//184
f 232//185 233//185 231//185 228//185
f 213//186 232//186 228//186 214//186
f 234//187 235//187 230//187 229//187
f 233//188 234//188 229//188 231//188
f 236//189 237//189 234//189 233//189
f 238//190 236//190 233//190 232//190
f 212//191 238//191 232//191 213//191
f 237//192 239//192 235//192 234//192
f 211//193 240//193 238//193 212//193
f 241//194 242//194 239//194 237//194
f 243//195 241//195 237//195 236//195
f 240//196 243//196 236//196 238//196
f 244//197 245//197 243//197 240//197
f 210//198 244//198 240//198 211//198
f 246//199 247//199 242//199 241//199
f 245//200 246//200 241//200 243//200
f 248//201 249//201 246//201 245//201
f 250//202 248//202 245//202 244//202
f 209//203 250//203 244//203 210//203
f 249//204 251//204 247//204 246//204
f 208//205 252//205 250//205 209//205
f 253//206 254//206 251//206 249//206
f 255//207 253//207 249//207 248//207
f 252//208 255//208 248//208 250//208
f 256//209 257//209 255//209 252//209
f 207//210 256//210 252//210 208//210
f 258//211 259//211 254//211 253//211
f 257//212 258//212 253//212 255//212
f 260//213 261//213 258//213 257//213
f 262//214 260//214 257//214 256//214
f 206//215 262//215 256//215 207//215
f 261//216 263//216 259//216 258//216
f 205//217 217//217 262//217 206//217
f 221//218 220//218 263//218 261//218
f 223//219 221//219 261//219 260//219
f 217//220 223//220 260//220 262//220
f 150//221 149//221 220//221 219//221
f 158//222 150//222 219//222 227//222
f 161//223 158//223 227//223 230//223
f 167//224 161//224 230//224 235//224
f 173//225 167//225 235//225 239//225
f 176//226 173//226 239//226 242//226
f 182//227 176//227 242//227 247//227
f 188//228 182//228 247//228 251//228
f 191//229 188//229 251//229 254//229
f 197//230 191//230 254//230 259//230
f 203//231 197//231 259//231 263//231
f 149//232 203//232 263//232 220//232
f 144//233 147//233 157//233 160//233 166//233 172//233 175//233 181//233 187//233 190//233 196//233 202//233
f 179//234 132//234 129//234 183//234
f 178//235 170//235 131//235 132//235 179//235
f 169//236 131//236 170//236
f 169//237 130//237 131//237
f 6//238 5//238 140//238 136//238
f 139//6 264//6 130//6 129//6
f 140//122 143//122 133//122 136//122
f 139//239 137//239 133//239 143//239
f 5//240 7//240 141//240 140//240
f 130//123 264//123 138//123 131//123
f 8//241 6//241 136//241 135//241
f 132//5 131//5 138//5 137//5
f 138//242 264//242 142//242 134//242
f 7//243 8//243 135//243 141//243
f 264//244 139//244 143//244 142//244
l 131 178
l 3 43
l 4 43
l 132 178
