# Blender v2.76 (sub 0) OBJ File: 'Spin.blend'
# www.blender.org
mtllib Spin.mtl
o Plane
v -1.001336 2.397302 0.952298
v 1.000000 2.397302 0.952298
v -1.003392 2.976486 0.950701
v 0.996608 2.976486 0.950701
v -1.003392 2.976486 1.531818
v -1.001336 2.397302 1.533414
v 1.000000 2.397302 1.533414
v 0.996608 2.976486 1.531818
v -1.000000 -1.032126 -2.489176
v 1.000000 -1.032126 -2.489176
v -1.003392 -0.452942 -2.490772
v 0.996608 -0.452942 -2.490772
v -1.003032 -0.451793 -1.907215
v -1.001336 -1.031943 -1.906416
v 1.000000 -1.031943 -1.906416
v 0.998304 -0.451793 -1.907215
v 1.000000 1.902038 0.908169
v 1.000000 1.801128 1.480458
v 1.000000 1.421962 0.778710
v 1.000000 1.223208 1.324781
v 1.000000 0.971659 0.567852
v 1.000000 0.681100 1.071115
v 1.000000 0.564812 0.282004
v 1.000000 0.191277 0.727166
v 1.000000 0.213783 -0.070149
v 1.000000 -0.231378 0.303386
v 1.000000 -0.070762 -0.477908
v 1.000000 -0.574024 -0.187350
v 1.000000 -0.280177 -0.928883
v 1.000000 -0.826249 -0.730129
v 1.000000 -0.408100 -1.409371
v 1.000000 -0.980389 -1.308461
v -1.002672 1.801128 1.480458
v -1.002672 1.902038 0.908169
v -1.002672 1.223208 1.324781
v -1.002672 1.421962 0.778710
v -1.002672 0.681100 1.071115
v -1.002672 0.971659 0.567852
v -1.002672 0.191277 0.727166
v -1.002672 0.564812 0.282004
v -1.002672 -0.231378 0.303386
v -1.002672 0.213783 -0.070149
v -1.002672 -0.574024 -0.187350
v -1.002672 -0.070762 -0.477908
v -1.002672 -0.826249 -0.730129
v -1.002672 -0.280177 -0.928883
v -1.002672 -0.980389 -1.308461
v -1.002672 -0.408100 -1.409371
vn 0.000000 -0.002800 -1.000000
vn 0.000000 0.002800 1.000000
vn 1.000000 0.005900 0.000000
vn -1.000000 -0.003500 0.000000
vn 0.000000 1.000000 0.000000
vn 0.000000 -1.000000 0.000000
vn 0.000000 0.001400 1.000000
vn 1.000000 0.004400 -0.001500
vn -1.000000 -0.004400 -0.000800
vn 0.000000 1.000000 -0.002000
vn 0.000000 -1.000000 0.000300
vn 0.000000 0.708200 -0.706000
vn 0.000000 -0.906900 0.421400
vn 0.000000 -0.260100 0.965600
vn 0.000000 0.907000 -0.421200
vn 0.000000 0.260400 -0.965500
vn 0.000000 -0.574700 0.818400
vn -1.000000 -0.000000 0.000000
vn -1.000000 -0.001500 -0.000800
vn 0.000000 -0.708000 0.706200
vn 0.000000 0.424100 -0.905600
vn 0.000000 0.966300 -0.257300
vn 0.000000 -0.423800 0.905700
vn 0.000000 -0.966300 0.257500
vn 0.000000 0.820100 -0.572300
vn 1.000000 0.000200 -0.000200
vn 0.000000 -0.819900 0.572500
vn 0.000000 0.574900 -0.818200
vn 0.000000 -0.088500 0.996100
vn 0.000000 0.088700 -0.996100
vn -1.000000 0.002400 0.000200
vn 1.000000 0.000000 0.000000
vn 0.000000 0.996200 -0.087400
vn 0.000000 -0.996300 0.085900
usemtl None
s off
f 1//1 3//1 4//1 2//1
f 6//2 7//2 8//2 5//2
f 2//3 4//3 8//3 7//3
f 3//4 1//4 6//4 5//4
f 4//5 3//5 5//5 8//5
f 1//6 2//6 7//6 6//6
f 9//1 11//1 12//1 10//1
f 14//7 15//7 16//7 13//7
f 10//8 12//8 16//8 15//8
f 11//9 9//9 14//9 13//9
f 12//10 11//10 13//10 16//10
f 9//11 10//11 15//11 14//11
f 23//12 25//12 42//12 40//12
f 30//13 28//13 43//13 45//13
f 20//14 18//14 33//14 35//14
f 27//15 29//15 46//15 44//15
f 17//16 19//16 36//16 34//16
f 24//17 22//17 37//17 39//17
f 33//18 34//18 36//18 35//18
f 35//18 36//18 38//18 37//18
f 37//18 38//18 40//18 39//18
f 39//18 40//18 42//18 41//18
f 41//18 42//18 44//18 43//18
f 43//18 44//18 46//18 45//18
f 45//18 46//18 48//18 47//18
f 47//19 48//19 13//19 14//19
f 26//20 24//20 39//20 41//20
f 19//21 21//21 38//21 36//21
f 29//22 31//22 48//22 46//22
f 22//23 20//23 35//23 37//23
f 32//24 30//24 45//24 47//24
f 25//25 27//25 44//25 42//25
f 15//26 16//26 31//26 29//26 27//26 25//26 23//26 21//26 19//26 17//26 18//26 20//26 22//26 24//26 26//26 28//26 30//26 32//26
f 28//27 26//27 41//27 43//27
f 21//28 23//28 40//28 38//28
f 18//29 7//29 6//29 33//29
f 2//30 17//30 34//30 1//30
f 6//31 1//31 34//31 33//31
f 7//32 18//32 17//32 2//32
f 31//33 16//33 13//33 48//33
f 15//34 32//34 47//34 14//34
l 19 20
l 21 22
l 23 24
l 25 26
l 27 28
l 29 30
l 31 32
